<svg width="2106" height="431" viewBox="0 0 2106 431" fill="none" xmlns="http://www.w3.org/2000/svg">
<path d="M156.438 358.172C149.555 358.172 143.388 356.843 137.936 354.185C132.485 351.459 128.192 347.643 125.057 342.737C121.922 337.83 120.355 332.072 120.355 325.462C120.355 318.511 122.229 312.514 125.977 307.471C129.793 302.428 135.347 298.578 142.639 295.92C149.93 293.263 158.789 291.934 169.215 291.934H192.317V307.369H170.135C160.731 307.369 153.44 308.902 148.261 311.969C143.15 314.967 140.594 319.363 140.594 325.155C140.594 328.494 141.446 331.356 143.15 333.741C144.853 336.058 147.136 337.864 149.998 339.159C152.929 340.386 156.2 340.999 159.811 340.999C163.832 340.999 168.091 340.113 172.589 338.341C177.086 336.569 180.936 333.912 184.139 330.368C187.342 326.756 188.944 322.293 188.944 316.977V305.733L188.024 299.702V287.027C188.024 285.051 187.819 282.802 187.41 280.281C187.07 277.691 186.184 275.238 184.753 272.921C183.39 270.536 181.243 268.56 178.313 266.992C175.383 265.425 171.396 264.641 166.353 264.641C163.014 264.641 159.402 265.05 155.518 265.868C151.702 266.686 147.988 267.81 144.376 269.241C140.833 270.672 137.698 272.308 134.972 274.148L127.51 256.566C130.849 254.59 134.768 252.818 139.265 251.251C143.763 249.615 148.533 248.355 153.576 247.469C158.619 246.583 163.662 246.14 168.704 246.14C176.882 246.14 183.526 247.298 188.637 249.615C193.816 251.932 197.803 255.067 200.597 259.019C203.391 262.972 205.299 267.333 206.321 272.103C207.411 276.874 207.956 281.712 207.956 286.618V323.417C207.956 327.847 208.433 331.322 209.387 333.844C210.341 336.297 212.079 338 214.601 338.954L216.747 339.772L208.978 358.172L206.014 356.945C201.517 355.105 197.905 352.618 195.179 349.483C192.453 346.348 191.022 343.214 190.886 340.079L194.872 342.021H187.513L192.521 339.159C189.932 344.338 185.4 348.802 178.926 352.55C172.52 356.298 165.024 358.172 156.438 358.172ZM260.497 358.172C255.113 358.172 250.684 357.047 247.208 354.798C243.733 352.481 241.143 349.21 239.44 344.985C237.736 340.692 236.884 335.649 236.884 329.857V199.119H257.737V329.141C257.737 330.573 257.873 332.106 258.146 333.741C258.418 335.309 259.1 336.672 260.19 337.83C261.28 338.92 263.052 339.466 265.505 339.466C266.391 339.466 267.209 339.397 267.959 339.261C268.776 339.057 269.56 338.852 270.31 338.648V356.638C269.083 357.115 267.584 357.49 265.812 357.763C264.108 358.035 262.337 358.172 260.497 358.172ZM289.629 356.536V247.878H310.073V260.962H313.65L305.473 271.081C308.267 263.176 312.696 257.077 318.761 252.784C324.826 248.423 331.88 246.242 339.921 246.242C347.826 246.242 354.504 248.252 359.956 252.273C365.407 256.294 369.121 261.541 371.097 268.015L363.942 261.575H373.96L365.169 268.015C368.44 260.723 373.38 255.271 379.99 251.66C386.669 248.048 393.926 246.242 401.763 246.242C408.032 246.242 413.484 247.298 418.118 249.411C422.82 251.523 426.67 254.454 429.669 258.202C432.735 261.882 434.984 266.107 436.415 270.877C437.914 275.647 438.664 280.656 438.664 285.903V356.536H417.811V289.685C417.811 281.508 415.937 275.34 412.189 271.183C408.441 266.958 403.399 264.846 397.061 264.846C393.04 264.846 389.326 265.766 385.919 267.606C382.512 269.446 379.752 272.206 377.639 275.885C375.595 279.497 374.573 284.097 374.573 289.685V356.536H353.72V289.685C353.72 281.508 351.812 275.34 347.996 271.183C344.18 266.958 339.103 264.846 332.765 264.846C326.769 264.846 321.555 266.958 317.126 271.183C312.696 275.408 310.482 281.814 310.482 290.401V356.536H289.629ZM511.75 358.172C501.529 358.172 492.363 355.786 484.254 351.016C476.144 346.246 469.739 339.602 465.036 331.084C460.334 322.565 457.983 312.752 457.983 301.645C457.983 290.741 460.334 281.133 465.036 272.819C469.739 264.437 476.144 257.929 484.254 253.295C492.363 248.593 501.529 246.242 511.75 246.242C522.109 246.242 531.342 248.593 539.452 253.295C547.561 257.929 553.933 264.437 558.567 272.819C563.201 281.133 565.518 290.741 565.518 301.645C565.518 312.752 563.166 322.565 558.464 331.084C553.762 339.602 547.357 346.246 539.247 351.016C531.138 355.786 521.972 358.172 511.75 358.172ZM511.75 339.363C518.156 339.363 523.846 337.796 528.821 334.661C533.796 331.458 537.68 327.063 540.474 321.475C543.268 315.819 544.665 309.209 544.665 301.645C544.665 294.353 543.268 287.947 540.474 282.427C537.68 276.908 533.796 272.649 528.821 269.65C523.846 266.584 518.156 265.05 511.75 265.05C505.481 265.05 499.859 266.584 494.884 269.65C489.91 272.649 485.991 276.908 483.129 282.427C480.267 287.879 478.836 294.285 478.836 301.645C478.836 309.209 480.233 315.819 483.027 321.475C485.889 327.063 489.773 331.458 494.68 334.661C499.655 337.796 505.345 339.363 511.75 339.363ZM618.671 358.172C612.129 358.172 606.167 356.979 600.783 354.594C595.399 352.141 590.8 348.972 586.983 345.088C583.235 341.135 580.578 336.944 579.01 332.515L597.205 324.848C598.705 328.801 601.396 332.31 605.281 335.377C609.233 338.375 613.697 339.874 618.671 339.874C621.738 339.874 624.6 339.295 627.258 338.137C629.983 336.91 632.164 335.275 633.8 333.23C635.503 331.118 636.355 328.664 636.355 325.87C636.355 323.076 635.503 320.691 633.8 318.715C632.096 316.671 629.915 314.967 627.258 313.604C624.6 312.173 621.84 310.981 618.978 310.027C616.116 309.072 613.56 308.221 611.312 307.471C606.95 306.04 602.521 304.132 598.023 301.747C593.525 299.362 589.709 296.159 586.575 292.138C583.508 288.05 581.975 282.836 581.975 276.499C581.975 270.161 583.576 264.744 586.779 260.246C590.05 255.68 594.343 252.205 599.659 249.82C605.042 247.366 610.835 246.14 617.036 246.14C625.963 246.14 633.527 248.389 639.728 252.886C645.998 257.316 650.427 262.427 653.017 268.219L635.026 275.783C633.527 272.921 631.38 270.263 628.586 267.81C625.793 265.289 622.044 264.028 617.342 264.028C613.254 264.028 609.642 265.118 606.507 267.299C603.441 269.48 601.907 272.58 601.907 276.601C601.907 280.008 602.998 282.768 605.178 284.881C607.427 286.925 610.221 288.629 613.56 289.992C616.899 291.286 620.307 292.479 623.782 293.569C626.644 294.455 629.881 295.648 633.493 297.147C637.173 298.646 640.716 300.588 644.124 302.973C647.599 305.359 650.461 308.357 652.71 311.969C655.027 315.58 656.186 320.01 656.186 325.257C656.186 331.663 654.448 337.353 650.972 342.328C647.497 347.302 642.897 351.187 637.173 353.981C631.517 356.775 625.35 358.172 618.671 358.172ZM718.539 358.172C707.636 358.172 699.424 355.071 693.904 348.87C688.384 342.6 685.625 334.593 685.625 324.848V213.634H706.477V323.111C706.477 328.494 707.704 332.549 710.157 335.275C712.678 337.932 715.881 339.261 719.766 339.261C721.469 339.261 723.037 339.023 724.468 338.546C725.899 338.069 727.228 337.523 728.454 336.91L735.916 354.492C733.599 355.514 731.01 356.366 728.148 357.047C725.354 357.797 722.151 358.172 718.539 358.172ZM667.634 265.868V247.775H732.952V265.868H667.634Z" fill="#FF4500"/>
<path d="M955.636 131.41L928.27 196.48C924.82 194.758 916.636 192.814 908.878 192.814C901.12 192.814 893.362 194.752 885.826 198.418C870.958 205.96 859.966 221.044 859.966 242.806V361.96H791.878V130.12H858.028V162.658H859.318C874.834 141.97 898.534 126.676 929.344 126.676C940.546 126.676 951.322 128.83 955.63 131.416L955.636 131.41Z" fill="#FF4500"/>
<path d="M942.46 246.688C942.46 179.674 988.354 126.67 1057.09 126.67C1119.36 126.67 1163.96 172.132 1163.96 236.128C1163.96 247.33 1162.88 257.89 1160.52 268.018H1004.52C1011.63 292.366 1032.74 311.326 1064.42 311.326C1081.87 311.326 1106.65 305.074 1120.01 294.736L1141.13 345.586C1121.52 358.948 1091.57 365.41 1065.28 365.41C991.804 365.41 942.46 318.004 942.46 246.688ZM1003.22 225.352H1101.26C1101.26 195.616 1081.01 179.89 1056.23 179.89C1028.22 179.89 1009.25 197.992 1003.22 225.352Z" fill="#FF4500"/>
<path d="M1748.25 25.948C1771.1 25.948 1789.84 44.692 1789.84 67.534C1789.84 90.376 1771.1 109.12 1748.25 109.12C1725.41 109.12 1706.67 90.376 1706.67 67.534C1706.67 44.692 1725.41 25.948 1748.25 25.948ZM1782.3 361.966H1714.21V130.12H1782.3V361.966Z" fill="#FF4500"/>
<path d="M1352.91 30.1421L1352.69 152.098H1351.4C1332.66 134.212 1312.4 126.886 1285.9 126.886C1220.61 126.886 1177.31 179.458 1177.31 246.04C1177.31 312.622 1217.81 365.41 1283.75 365.41C1311.33 365.41 1337.4 355.93 1354.2 334.384H1356.14V361.966H1421V30.1421H1352.91ZM1356.15 306.694H1353.9L1338.71 290.902C1328.82 300.772 1315.28 306.694 1299.48 306.694C1266.12 306.694 1242.8 280.318 1242.8 246.094C1242.8 211.87 1266.12 185.494 1299.48 185.494C1332.83 185.494 1356.15 211.87 1356.15 246.094V306.694H1356.15Z" fill="#FF4500"/>
<path d="M1612.96 30.1359L1612.74 152.092H1611.45C1592.71 134.206 1572.45 126.88 1545.95 126.88C1480.67 126.88 1437.36 179.452 1437.36 246.034C1437.36 312.616 1477.86 365.404 1543.8 365.404C1571.38 365.404 1597.45 355.924 1614.26 334.378H1616.19V361.96H1681.05V30.1359H1612.96ZM1615.88 306.688H1613.63L1598.43 290.896C1588.55 300.766 1575 306.688 1559.21 306.688C1525.85 306.688 1502.53 280.312 1502.53 246.088C1502.53 211.864 1525.85 185.488 1559.21 185.488C1592.56 185.488 1615.88 211.864 1615.88 246.088V306.688H1615.88Z" fill="#FF4500"/>
<path d="M1914.35 130.12H1964.12V188.08H1914.35V361.966H1846.26V188.08H1796.7V130.12H1846.26V67.096H1914.35V130.12Z" fill="#FF4500"/>
</svg>
