<svg class="svg-icon" style="width: 1em; height: 1em;vertical-align: middle;fill: currentColor;overflow: hidden;" viewBox="0 0 1024 1024" version="1.1" xmlns="http://www.w3.org/2000/svg"><path d="M317.8 1023.9c-68.2-142-31.9-223.4 20.5-300 57.4-84 72.3-167 72.3-167s45.2 58.7 27.1 150.5c79.7-88.8 94.8-230.3 82.8-284.5C700.8 548.9 777.8 821.7 674 1024c552.4-312.5 137.4-780.2 65.2-832.8 24.1 52.7 28.7 141.8-20 185.2C636.7 64 433.1 0 433.1 0c24.1 161-87.3 337.2-194.7 468.7-3.8-64.2-7.8-108.5-41.5-170-7.6 116.7-96.7 211.8-120.9 328.7-32.7 158.3 24.5 274.2 241.7 396.6l0.1-0.1z m0 0" fill="#ffffff" /></svg>