<svg width="256" height="256" viewBox="0 0 256 256" fill="none" xmlns="http://www.w3.org/2000/svg">
<g clip-path="url(#clip0_62_161)">
<path d="M196 0H60C26.8629 0 0 26.8629 0 60V196C0 229.137 26.8629 256 60 256H196C229.137 256 256 229.137 256 196V60C256 26.8629 229.137 0 196 0Z" fill="#FF4500"/>
<path d="M154.04 60.36C156.26 69.77 164.71 76.78 174.8 76.78C186.58 76.78 196.13 67.23 196.13 55.45C196.13 43.67 186.58 34.12 174.8 34.12C164.5 34.12 155.91 41.42 153.91 51.13C136.66 52.98 123.19 67.61 123.19 85.34C123.19 85.38 123.19 85.41 123.19 85.45C104.43 86.24 87.3 91.58 73.7 100.01C68.65 96.1 62.31 93.77 55.43 93.77C38.92 93.77 25.54 107.15 25.54 123.66C25.54 135.64 32.58 145.96 42.75 150.73C43.74 185.43 81.55 213.34 128.06 213.34C174.57 213.34 212.43 185.4 213.37 150.67C223.46 145.87 230.44 135.58 230.44 123.67C230.44 107.16 217.06 93.78 200.55 93.78C193.7 93.78 187.39 96.09 182.35 99.97C168.63 91.48 151.31 86.14 132.36 85.43C132.36 85.4 132.36 85.38 132.36 85.35C132.36 72.65 141.8 62.11 154.04 60.38V60.36ZM72.5 142.63C73 131.79 80.2 123.47 88.57 123.47C96.94 123.47 103.34 132.26 102.84 143.1C102.34 153.94 96.09 157.88 87.71 157.88C79.33 157.88 72 153.47 72.5 142.63ZM167.56 123.47C175.94 123.47 183.14 131.79 183.63 142.63C184.13 153.47 176.79 157.88 168.42 157.88C160.05 157.88 153.79 153.95 153.29 143.1C152.79 132.26 159.18 123.47 167.56 123.47ZM157.6 167.71C159.17 167.87 160.17 169.5 159.56 170.96C154.41 183.27 142.25 191.92 128.06 191.92C113.87 191.92 101.72 183.27 96.56 170.96C95.95 169.5 96.95 167.87 98.52 167.71C107.72 166.78 117.67 166.27 128.06 166.27C138.45 166.27 148.39 166.78 157.6 167.71Z" fill="white"/>
<g filter="url(#filter0_b_62_161)">
<path d="M185.034 56.8092C184.762 57.0701 184.637 57.4473 184.702 57.8163L186.244 66.6668C186.293 66.9497 186.235 67.2114 186.108 67.4268H185.948L186.069 67.4894C185.929 67.6934 185.725 67.8495 185.492 67.9332L185.49 67.9341L185.121 67.9991L185.119 67.9999C184.938 68.0023 184.749 67.9609 184.567 67.8666L176.667 63.7762L176.496 63.6876C176.16 63.5137 175.757 63.5137 175.421 63.6876L168.23 67.4106L168.129 67.4626L167.349 67.8666C167.279 67.9024 167.209 67.9308 167.138 67.9519C166.346 68.1877 165.523 67.5203 165.672 66.6668L167.214 57.8163C167.278 57.4473 167.154 57.0701 166.881 56.8092L160.35 50.5411C159.664 49.8827 160.043 48.7358 160.991 48.6L170.015 47.3084C170.391 47.2547 170.717 47.0222 170.886 46.6865L174.921 38.6334C175.155 38.1677 175.631 37.9588 176.084 38.0067C176.447 38.0441 176.795 38.249 176.987 38.6212C176.989 38.6253 176.991 38.6294 176.993 38.6334L177.234 39.1138L181.029 46.6865C181.198 47.0222 181.524 47.2547 181.9 47.3084L190.924 48.6C191.872 48.7358 192.251 49.8827 191.565 50.5411L185.034 56.8092Z" fill="url(#paint0_linear_62_161)" fill-opacity="0.32"/>
<path d="M185.034 56.8092C184.762 57.0701 184.637 57.4473 184.702 57.8163L186.244 66.6668C186.293 66.9497 186.235 67.2114 186.108 67.4268H185.948L186.069 67.4894C185.929 67.6934 185.725 67.8495 185.492 67.9332L185.49 67.9341L185.121 67.9991L185.119 67.9999C184.938 68.0023 184.749 67.9609 184.567 67.8666L176.667 63.7762L176.496 63.6876C176.16 63.5137 175.757 63.5137 175.421 63.6876L168.23 67.4106L168.129 67.4626L167.349 67.8666C167.279 67.9024 167.209 67.9308 167.138 67.9519C166.346 68.1877 165.523 67.5203 165.672 66.6668L167.214 57.8163C167.278 57.4473 167.154 57.0701 166.881 56.8092L160.35 50.5411C159.664 49.8827 160.043 48.7358 160.991 48.6L170.015 47.3084C170.391 47.2547 170.717 47.0222 170.886 46.6865L174.921 38.6334C175.155 38.1677 175.631 37.9588 176.084 38.0067C176.447 38.0441 176.795 38.249 176.987 38.6212C176.989 38.6253 176.991 38.6294 176.993 38.6334L177.234 39.1138L181.029 46.6865C181.198 47.0222 181.524 47.2547 181.9 47.3084L190.924 48.6C191.872 48.7358 192.251 49.8827 191.565 50.5411L185.034 56.8092Z" fill="black"/>
<path d="M166.982 56.7043L160.451 50.4364C159.854 49.8641 160.18 48.8628 161.011 48.7438C161.011 48.7438 161.011 48.7437 161.011 48.7437L170.035 47.4521C170.458 47.3919 170.825 47.1306 171.016 46.7516L171.016 46.7516L175.051 38.6985C175.051 38.6985 175.051 38.6985 175.051 38.6985C175.255 38.2927 175.669 38.1088 176.068 38.1511L176.069 38.1512C176.388 38.184 176.691 38.3628 176.858 38.6877L176.857 38.6878L176.861 38.694C176.862 38.6956 176.863 38.6985 176.865 38.7021L177.105 39.1789L177.105 39.179L180.899 46.7516L180.899 46.7516C181.089 47.1306 181.457 47.3919 181.88 47.4521L190.904 48.7437C190.904 48.7437 190.904 48.7438 190.904 48.7438C191.735 48.8628 192.06 49.8641 191.464 50.4364L184.934 56.7043H166.982Z" stroke="url(#paint1_linear_62_161)" stroke-width="0.290426"/>
</g>
</g>
<defs>
<filter id="filter0_b_62_161" x="158.429" y="36.4295" width="35.056" height="33.141" filterUnits="userSpaceOnUse" color-interpolation-filters="sRGB">
<feFlood flood-opacity="0" result="BackgroundImageFix"/>
<feGaussianBlur in="BackgroundImageFix" stdDeviation="0.785252"/>
<feComposite in2="SourceAlpha" operator="in" result="effect1_backgroundBlur_62_161"/>
<feBlend mode="normal" in="SourceGraphic" in2="effect1_backgroundBlur_62_161" result="shape"/>
</filter>
<linearGradient id="paint0_linear_62_161" x1="170.407" y1="36.2429" x2="187.419" y2="69.4929" gradientUnits="userSpaceOnUse">
<stop stop-color="white"/>
<stop offset="0.0001" stop-color="white"/>
<stop offset="1" stop-color="white" stop-opacity="0.1"/>
</linearGradient>
<linearGradient id="paint1_linear_62_161" x1="164.163" y1="37.9871" x2="193.481" y2="70.2666" gradientUnits="userSpaceOnUse">
<stop stop-color="white" stop-opacity="0.7"/>
<stop offset="0.5" stop-color="white" stop-opacity="0.1"/>
<stop offset="1" stop-color="white" stop-opacity="0.5"/>
</linearGradient>
<clipPath id="clip0_62_161">
<rect width="256" height="256" fill="white"/>
</clipPath>
</defs>
</svg>
